HIERARCHY
ROOT hip
{
  OFFSET 29.9448 46.3198 27.6665
  CHANNELS 6 Xposition Yposition Zposition Zrotation Xrotation Yrotation
  JOINT abdomen
  {
    OFFSET 0 20.6881 -0.73152
    CHANNELS 3 Zrotation Xrotation Yrotation
    JOINT chest
    {
      OFFSET 0 11.7043 -0.48768
      CHANNELS 3 Zrotation Xrotation Yrotation
      JOINT neck
      {
        OFFSET 0 22.1894 -2.19456
        CHANNELS 3 Zrotation Xrotation Yrotation
        JOINT head
        {
          OFFSET -0.24384 7.07133 1.2192
          CHANNELS 3 Zrotation Xrotation Yrotation
          JOINT leftEye
          {
            OFFSET 4.14528 8.04674 8.04672
            CHANNELS 3 Zrotation Xrotation Yrotation
            End Site
            {
              OFFSET 1 0 0
            }
          }
          JOINT rightEye
          {
            OFFSET -3.6576 8.04674 8.04672
            CHANNELS 3 Zrotation Xrotation Yrotation
            End Site
            {
              OFFSET 1 0 0
            }
          }
        }
      }
      JOINT rCollar
      {
        OFFSET -2.68224 19.2634 -4.8768
        CHANNELS 3 Zrotation Xrotation Yrotation
        JOINT rShldr
        {
          OFFSET -8.77824 -1.95073 1.46304
          CHANNELS 3 Zrotation Xrotation Yrotation
          JOINT rForeArm
          {
            OFFSET -28.1742 -1.7115 0.48768
            CHANNELS 3 Zrotation Xrotation Yrotation
            JOINT rHand
            {
              OFFSET -22.5879 0.773209 7.07136
              CHANNELS 3 Zrotation Xrotation Yrotation
              JOINT rThumb1
              {
                OFFSET -1.2192 -0.487915 3.41376
                CHANNELS 3 Zrotation Xrotation Yrotation
                JOINT rThumb2
                {
                  OFFSET -3.37035 -0.52449 3.41376
                  CHANNELS 3 Zrotation Xrotation Yrotation
                  End Site
                  {
                    OFFSET -1.78271 -1.18214 1.43049
                  }
                }
              }
              JOINT rIndex1
              {
                OFFSET -7.75947 0.938293 5.60832
                CHANNELS 3 Zrotation Xrotation Yrotation
                JOINT rIndex2
                {
                  OFFSET -2.54057 -0.884171 1.56538
                  CHANNELS 3 Zrotation Xrotation Yrotation
                  End Site
                  {
                    OFFSET -1.62519 -0.234802 1.16502
                  }
                }
              }
              JOINT rMid1
              {
                OFFSET -8.24714 1.18213 3.41376
                CHANNELS 3 Zrotation Xrotation Yrotation
                JOINT rMid2
                {
                  OFFSET -3.10165 -0.590103 1.0647
                  CHANNELS 3 Zrotation Xrotation Yrotation
                  End Site
                  {
                    OFFSET -2.48547 -0.328903 0.83742
                  }
                }
              }
              JOINT rRing1
              {
                OFFSET -8.82822 0.546677 1.51678
                CHANNELS 3 Zrotation Xrotation Yrotation
                JOINT rRing2
                {
                  OFFSET -2.60934 -0.819778 -0.0198488
                  CHANNELS 3 Zrotation Xrotation Yrotation
                  End Site
                  {
                    OFFSET -2.33842 -0.294052 0.168128
                  }
                }
              }
              JOINT rPinky1
              {
                OFFSET -8.27202 -0.0477905 -0.4584
                CHANNELS 3 Zrotation Xrotation Yrotation
                JOINT rPinky2
                {
                  OFFSET -1.82734 -0.647385 -0.700984
                  CHANNELS 3 Zrotation Xrotation Yrotation
                  End Site
                  {
                    OFFSET -1.69225 -0.51767 -0.607171
                  }
                }
              }
            }
          }
        }
      }
      JOINT lCollar
      {
        OFFSET 2.68224 19.2634 -4.8768
        CHANNELS 3 Zrotation Xrotation Yrotation
        JOINT lShldr
        {
          OFFSET 8.77824 -1.95073 1.46304
          CHANNELS 3 Zrotation Xrotation Yrotation
          JOINT lForeArm
          {
            OFFSET 28.1742 -1.7115 0.48768
            CHANNELS 3 Zrotation Xrotation Yrotation
            JOINT lHand
            {
              OFFSET 22.5879 0.773209 7.07136
              CHANNELS 3 Zrotation Xrotation Yrotation
              JOINT lThumb1
              {
                OFFSET 1.2192 -0.487915 3.41376
                CHANNELS 3 Zrotation Xrotation Yrotation
                JOINT lThumb2
                {
                  OFFSET 3.37035 -0.52449 3.41376
                  CHANNELS 3 Zrotation Xrotation Yrotation
                  End Site
                  {
                    OFFSET 1.78271 -1.18214 1.43049
                  }
                }
              }
              JOINT lIndex1
              {
                OFFSET 7.75947 0.938293 5.60832
                CHANNELS 3 Zrotation Xrotation Yrotation
                JOINT lIndex2
                {
                  OFFSET 2.54057 -0.884171 1.56538
                  CHANNELS 3 Zrotation Xrotation Yrotation
                  End Site
                  {
                    OFFSET 1.62519 -0.234802 1.16502
                  }
                }
              }
              JOINT lMid1
              {
                OFFSET 8.24714 1.18213 3.41376
                CHANNELS 3 Zrotation Xrotation Yrotation
                JOINT lMid2
                {
                  OFFSET 3.10165 -0.590103 1.0647
                  CHANNELS 3 Zrotation Xrotation Yrotation
                  End Site
                  {
                    OFFSET 2.48547 -0.328903 0.83742
                  }
                }
              }
              JOINT lRing1
              {
                OFFSET 8.82822 0.546677 1.51678
                CHANNELS 3 Zrotation Xrotation Yrotation
                JOINT lRing2
                {
                  OFFSET 2.60934 -0.819778 -0.0198488
                  CHANNELS 3 Zrotation Xrotation Yrotation
                  End Site
                  {
                    OFFSET 2.33842 -0.294052 0.168128
                  }
                }
              }
              JOINT lPinky1
              {
                OFFSET 8.27202 -0.0477905 -0.4584
                CHANNELS 3 Zrotation Xrotation Yrotation
                JOINT lPinky2
                {
                  OFFSET 1.82734 -0.647385 -0.700984
                  CHANNELS 3 Zrotation Xrotation Yrotation
                  End Site
                  {
                    OFFSET 1.69225 -0.51767 -0.607171
                  }
                }
              }
            }
          }
        }
      }
    }
  }
  JOINT rButtock
  {
    OFFSET -8.77824 4.35084 1.2192
    CHANNELS 3 Zrotation Xrotation Yrotation
    JOINT rThigh
    {
      OFFSET 0 -1.70687 -2.19456
      CHANNELS 3 Zrotation Xrotation Yrotation
      JOINT rShin
      {
        OFFSET 0 -36.8199 0.73152
        CHANNELS 3 Zrotation Xrotation Yrotation
        JOINT rFoot
        {
          OFFSET 0.73152 -45.1104 -5.12064
          CHANNELS 3 Zrotation Xrotation Yrotation
          End Site
          {
            OFFSET -1.1221 -3.69964 12.103
          }
        }
      }
    }
  }
  JOINT lButtock
  {
    OFFSET 8.77824 4.35084 1.2192
    CHANNELS 3 Zrotation Xrotation Yrotation
    JOINT lThigh
    {
      OFFSET 0 -1.70687 -2.19456
      CHANNELS 3 Zrotation Xrotation Yrotation
      JOINT lShin
      {
        OFFSET 0 -36.8199 0.73152
        CHANNELS 3 Zrotation Xrotation Yrotation
        JOINT lFoot
        {
          OFFSET -0.73152 -45.1104 -5.12064
          CHANNELS 3 Zrotation Xrotation Yrotation
          End Site
          {
            OFFSET 1.1221 -3.69964 12.103
          }
        }
      }
    }
  }
}
MOTION
Frames:	4
Frame Time:	0.00833333
52.3671 38.8444 31.8941 -0.0307782 0.000155227 0.000536363 0.0404797 0.000270375 0.00114427 0.0111564 0.000489888 0.00193255 1.0666e-015 7.95139e-016 -7.76503e-018 3.19919e-015 9.54166e-015 -2.64011e-017 -0 0 0 -0 0 0 6.44728e-016 -3.10601e-018 1.49089e-016 1.27033e-014 -3.54085e-016 7.95139e-016 1.95107e-013 -6.0033e-014 1.90833e-014 2.21097e-012 4.42544e-014 -4.13472e-014 5.2163e-012 -2.90589e-014 -2.8625e-014 8.99898e-012 -5.08889e-014 -5.725e-014 5.21929e-012 -2.98177e-014 -3.49861e-014 7.73091 5.47488 0.417314 5.21666e-012 -2.93207e-014 -2.8625e-014 2.90554 0.965183 0.102902 5.22455e-012 -2.9122e-014 -3.02153e-014 10.2786 0.731801 0.0259123 5.20498e-012 -2.50469e-014 -2.22639e-014 2.22167 -0.733487 -0.20892 4.48624e-016 -3.10601e-018 -1.49089e-016 9.56554e-015 -4.53478e-016 -7.95139e-016 1.91678e-013 5.54609e-014 -2.22639e-014 2.21103e-012 -7.01958e-014 1.90833e-014 5.21485e-012 -2.70805e-014 -2.8625e-014 9.01409e-012 -4.45278e-014 -5.00937e-014 5.20935e-012 -2.42517e-014 -1.90833e-014 -7.73091 5.47488 -0.417314 5.21462e-012 -2.73329e-014 -3.49861e-014 -2.90554 0.965183 -0.102902 5.20916e-012 -2.68359e-014 -2.8625e-014 -10.2786 0.731801 -0.0259123 5.2175e-012 -2.70347e-014 -3.81667e-014 -2.22167 -0.733487 0.20892 -2.03217e-016 0 -3.88251e-019 0.554683 -3.16495 -0.0436862 -0.00574552 0.179596 -0.0505604 -0.523923 2.98421 0.121174 2.03217e-016 0 3.88251e-019 -0.492992 -3.01454 0.0399643 0.00619299 -0.092873 0.0545601 0.523414 3.10627 -0.12362 
31.0104 46.4642 27.8553 13.4281 10.8263 26.2815 0.3488 14.6466 0.908653 -0.799708 -0.253242 -0.0893324 0.267248 0.220841 0.941237 -0.691291 -7.04902 1.62368 -0 0 0 -0 0 0 1.38881e-014 4.54271e-013 4.59301e-016 19.813 10.3184 9.64439 -10.2467 -7.11002 12.4622 0.0636692 5.60334 0.77397 -1.09441e-009 5.14011e-010 -9.83731e-011 -1.89327e-009 8.93775e-010 -1.51238e-010 -1.0944e-009 5.14009e-010 -9.83813e-011 7.73091 5.47488 0.417314 -1.0944e-009 5.14011e-010 -9.83739e-011 2.90554 0.965183 0.102902 -1.09439e-009 5.14009e-010 -9.83769e-011 10.2786 0.731801 0.0259123 -1.09441e-009 5.14014e-010 -9.83692e-011 2.22167 -0.733487 -0.20892 1.37392e-014 4.54271e-013 2.17809e-016 -16.847 15.1937 -11.671 9.71471 -6.57349 -12.1116 -0.0884469 6.60556 -0.906224 8.22055e-010 7.14763e-010 3.01947e-010 1.42705e-009 1.24283e-009 5.05257e-010 8.2205e-010 7.14763e-010 3.01959e-010 -7.73091 5.47488 -0.417314 8.22054e-010 7.14762e-010 3.01944e-010 -2.90554 0.965183 -0.102902 8.22048e-010 7.14762e-010 3.01949e-010 -10.2786 0.731801 -0.0259123 8.22057e-010 7.14762e-010 3.01941e-010 -2.22167 -0.733487 0.20892 -2.03217e-016 0 -3.88251e-019 -4.60271 -13.6062 -1.6904 0.492583 17.7843 0.385856 0.494274 3.58863 -1.5924 2.03217e-016 0 3.88251e-019 3.04663 -13.0198 1.61513 -0.412131 16.077 -0.387185 -0.392938 4.33387 1.09538 
31.0241 46.466 27.8108 18.325 14.6039 55.6533 0.102534 30.1196 2.08804 -1.65805 -0.521907 -0.185761 0.53197 0.463492 1.93603 -0.968346 -14.509 3.42674 -0 0 0 -0 0 0 2.93152e-014 9.84245e-013 8.60365e-016 36.8335 20.2289 20.8563 -17.7519 -13.4995 26.2165 -0.0368027 11.5372 1.61909 -2.34732e-009 1.0986e-009 -2.09221e-010 -4.06068e-009 1.91026e-009 -3.21446e-010 -2.34731e-009 1.0986e-009 -2.09231e-010 7.73091 5.47488 0.417314 -2.34731e-009 1.0986e-009 -2.09223e-010 2.90554 0.965183 0.102902 -2.3473e-009 1.0986e-009 -2.09227e-010 10.2786 0.731801 0.0259123 -2.34732e-009 1.0986e-009 -2.0922e-010 2.22167 -0.733487 -0.20892 2.92164e-014 9.84244e-013 6.80216e-016 -27.2975 29.0598 -26.7345 16.9972 -12.537 -25.3967 0.0511166 13.5742 -1.90392 1.74898e-009 1.52635e-009 6.42516e-010 3.03617e-009 2.65396e-009 1.07502e-009 1.74898e-009 1.52634e-009 6.4253e-010 -7.73091 5.47488 -0.417314 1.74898e-009 1.52634e-009 6.42517e-010 -2.90554 0.965183 -0.102902 1.74898e-009 1.52634e-009 6.4252e-010 -10.2786 0.731801 -0.0259123 1.74899e-009 1.52634e-009 6.42514e-010 -2.22167 -0.733487 0.20892 -2.03217e-016 0 -3.88251e-019 -10.7714 -24.6141 -3.6656 0.665501 36.393 1.00535 1.61064 4.22063 -3.41167 2.03217e-016 0 3.88251e-019 7.43509 -23.5695 3.48622 -0.53709 33.1684 -0.983114 -1.41886 5.62925 2.38868 
31.033 46.4533 27.7976 20.7942 7.42519 79.7121 -0.882419 43.8862 3.65738 -2.42386 -0.760699 -0.271884 0.779986 0.661809 2.82388 -0.803931 -21.0766 5.18173 -0 0 0 -0 0 0 4.0375e-014 1.36282e-012 1.07973e-015 48.4565 27.2517 32.4158 -21.852 -17.261 39.1667 -0.280225 16.7975 2.41387 -3.29365e-009 1.54209e-009 -2.95062e-010 -5.69779e-009 2.68143e-009 -4.53599e-010 -3.29364e-009 1.54209e-009 -2.95074e-010 7.73091 5.47488 0.417314 -3.29365e-009 1.54209e-009 -2.95065e-010 2.90554 0.965183 0.102902 -3.29363e-009 1.54209e-009 -2.9507e-010 10.2786 0.731801 0.0259123 -3.29365e-009 1.54209e-009 -2.95063e-010 2.22167 -0.733487 -0.20892 4.03203e-014 1.36282e-012 9.51604e-016 -29.4779 37.0809 -44.1713 21.1588 -16.1747 -37.8332 0.394745 19.7962 -2.87038 2.45573e-009 2.14434e-009 9.05898e-010 4.26313e-009 3.72857e-009 1.51587e-009 2.45573e-009 2.14434e-009 9.05914e-010 -7.73091 5.47488 -0.417314 2.45573e-009 2.14434e-009 9.05903e-010 -2.90554 0.965183 -0.102902 2.45573e-009 2.14434e-009 9.05904e-010 -10.2786 0.731801 -0.0259123 2.45574e-009 2.14434e-009 9.05899e-010 -2.22167 -0.733487 0.20892 -2.03217e-016 0 -3.88251e-019 -17.0496 -34.3655 -5.86866 0.24702 52.9782 1.99882 2.63924 4.7832 -5.02739 2.03217e-016 0 3.88251e-019 12.0512 -32.9231 5.53145 -0.189753 48.4031 -1.84575 -2.38324 6.77852 3.54847 
